<?xml version="1.0" encoding="UTF-8"?>
<svg id="_圖層_2" xmlns="http://www.w3.org/2000/svg" version="1.1" viewBox="0 0 425.7 204.2">
  <!-- Generator: Adobe Illustrator 29.0.0, SVG Export Plug-In . SVG Version: 2.1.0 Build 186)  -->
  <defs>
    <style>
      .st0 {
        fill: #231815;
      }
    </style>
  </defs>
  <path class="st0" d="M249.2,33.5c0-.4,0-.8-.1-1.1h61.9c0,.9,0,1.8,0,2.8,0,11.2.3,34.4-9,41.7-2.9,2.3-6.6,2.8-11.3,1.6-2.1-.5-4.3.8-4.8,2.9-.5,2.1.8,4.3,2.9,4.8,2.3.6,4.5.9,6.5.9,4.4,0,8.3-1.3,11.7-3.9,12.3-9.7,12.1-34.7,12-48.1,0-1.7,0-3.2,0-4.3,0-1.7-.6-3.3-1.8-4.5-1.2-1.2-2.8-1.9-4.5-1.9h-175.8c1-6,1.2-12.7,1.2-20.4S136.3,0,134.1,0s-4,1.8-4,4c0,20.9-1.5,31.1-15.6,41.7-1.8,1.3-2.1,3.8-.8,5.6.8,1.1,2,1.6,3.2,1.6s1.7-.3,2.4-.8c8.3-6.2,13-12.5,15.6-19.7h50.9c0,.2,0,.5-.1.7-.6,14.2-11,22.2-17,24.8-2,.9-3,3.2-2.2,5.2.6,1.5,2.1,2.5,3.7,2.5s1,0,1.5-.3c10.4-4.3,21.2-15.9,21.9-31.8,0-.4,0-.7-.1-1.1h47.8c0,.2,0,.4-.1.7-1.2,21.4-10.3,33.1-17.8,36.6-2,.9-2.9,3.3-1.9,5.3.7,1.5,2.1,2.3,3.6,2.3s1.1-.1,1.7-.4c9.5-4.4,21-18.4,22.4-43.4Z"/>
  <path class="st0" d="M48.7,171.7c-1.9-1.1-4.4-.5-5.5,1.4-3.6,6.1-10,10.5-17.2,13.4v-70.1c0-2.2-1.8-4-4-4s-4,1.8-4,4v71.4c0,.4,0,.8.2,1.2-4.9,1.2-9.8,1.8-14.3,1.8s-4,1.8-4,4,1.8,4,4,4c16.5,0,37.2-6.7,46.1-21.6,1.1-1.9.5-4.4-1.4-5.5Z"/>
  <path class="st0" d="M102.7,190.5c-4.9.3-8.9-1-12.2-4-5.4-4.8-8.8-14.1-9.4-25.4,0-.4-.1-.8-.3-1.2,1.3-11.4,1.3-25.2,1.3-41.9v-2.1c0-2.2-1.8-4-4-4s-4,1.8-4,4v2.1c0,43.1,0,62.7-18.4,72.7-1.9,1.1-2.7,3.5-1.6,5.4.7,1.3,2.1,2.1,3.5,2.1s1.3-.2,1.9-.5c8.4-4.5,13.6-10.7,17-18.8,2.1,5.6,5,10.2,8.7,13.5,4.5,4,10,6.1,16.2,6.1s1.2,0,1.8,0c2.2-.1,3.9-2,3.8-4.2s-2-3.9-4.2-3.8Z"/>
  <path class="st0" d="M119.5,148.2c.2,0,.3,0,.5,0,6.8-.8,23.7-12.1,23.7-34.2s-1.8-4-4-4-4,1.8-4,4c0,17.9-13.7,25.9-16.7,26.2-2.2.3-3.8,2.2-3.5,4.4.2,2,2,3.5,4,3.5Z"/>
  <path class="st0" d="M161.1,115.9c0-2.2-1.8-4-4-4s-4,1.8-4,4c0,7.8-3.7,19.7-10.9,27.7-9.1,10-16.7,14.8-24.9,15.6-2.2.2-3.8,2.2-3.6,4.4.2,2.1,1.9,3.6,4,3.6s.3,0,.4,0c8.4-.8,16.2-4.7,24.5-12.5,1.5,1.4,2.9,4.1,4,7.7-.7.2-1.3.6-1.7,1.2-5.2,6.4-12.5,10.7-21.6,12.8-2.2.5-3.5,2.6-3,4.8.4,1.9,2.1,3.1,3.9,3.1s.6,0,.9-.1c9.5-2.2,17.4-6.5,23.5-12.7.3,2,.6,4.2.8,6.4-.4.3-.8.8-1.1,1.3-2.3,4.3-12.7,9.8-18.8,10.6-2.2.3-3.7,2.3-3.4,4.5.3,2,2,3.4,4,3.4s.4,0,.6,0c5.3-.8,13.5-4.1,19.3-8.7,0,2.9,0,5.9-.2,9-.1,2.2,1.6,4.1,3.8,4.2,0,0,.1,0,.2,0,2.1,0,3.9-1.7,4-3.8.4-6.7,1.4-38.8-9.4-49.4,0,0,0,0,0,0,8.9-9.9,13-24,13-33Z"/>
  <path class="st0" d="M216.3,192.6h-16.8v-20.8c0-.1,0-.2,0-.4,8.9-4.2,15.1-13.6,15.1-24.6s-10.4-25.8-23.4-26.8c2.6-1.5,5.6-3.1,9-4.8,2-.9,2.8-3.3,1.9-5.3s-3.3-2.8-5.3-1.9c-20.5,9.8-26.8,18.9-30.2,26.6-.2.4-.3.8-.3,1.1-1.4,3.4-2.2,7.1-2.2,11,0,10.5,5.7,19.6,14,24,0,.3-.1.6-.1.9,0,18.4-5.8,20.8-10.9,20.8s-4,1.8-4,4,1.8,4,4,4c12.1,0,18.5-9.1,18.9-27.1,1.1.2,2.3.3,3.5.3s1.5,0,2.3-.1v20.9c0,3.3,2.7,6.1,6.1,6.1h18.7c2.2,0,4-1.8,4-4s-1.8-4-4-4ZM171.9,146.9c0-10.4,7.8-18.9,17.3-18.9s17.3,8.5,17.3,18.9-7.8,18.9-17.3,18.9-17.3-8.5-17.3-18.9Z"/>
  <path class="st0" d="M270,113.8h-30.9c-2.2,0-4,1.8-4,4s1.8,4,4,4h2.1v49.4c-4.3-.2-8.2,0-10.7.4-2.2.4-3.6,2.5-3.2,4.7.4,2.2,2.5,3.6,4.7,3.2,8.3-1.5,24.3.7,27.1,6.1.4.8,1,1.3,1.7,1.7v10.8c0,2.2,1.8,4,4,4s4-1.8,4-4v-76.3h1.2c2.2,0,4-1.8,4-4s-1.8-4-4-4ZM259,143.6c.4.8,1,1.3,1.7,1.7v8c-3.6-2.4-7.9-3.7-10.3-3.7,0,0,0,0,0,0-.4,0-.8,0-1.2.2v-11.5c.4.1.7.2,1.1.2,1.8,0,7.3,2.3,8.7,5.1ZM249.2,157.5c.4.1.7.2,1.1.2,1.8,0,7.3,2.3,8.7,5.1.4.8,1,1.3,1.7,1.7v12c-3.3-2-7.4-3.4-11.6-4.2v-14.8ZM260.8,134.3c-3.6-2.4-7.9-3.7-10.3-3.7,0,0,0,0,0,0-.4,0-.8,0-1.2.2v-8.9h11.6v12.4Z"/>
  <path class="st0" d="M323.6,193.9c-6.1-1.8-12.9-9.3-18.8-18.8,12.4-24.6,13.6-55.4,13.7-57.3v-4.2c.1,0-4,0-4,0-10.2.1-26.9.2-29.5,0-.2,0-.5,0-.8,0-2.2,0-4,1.8-4,4v1.7s1.2,1.2,1.2,1.2c1.4,1.4,1.5,1.5,28.8,1.2-.7,8.3-3,27.6-10.2,44.7-5.7-11.6-9.7-24.3-9.7-33.3s-1.8-4-4-4-4,1.8-4,4c0,11,5.4,27.9,13.3,42.2-4.8,8.4-11.2,15.5-19.7,19.2-2,.9-2.9,3.3-2,5.3.7,1.5,2.1,2.4,3.7,2.4s1.1-.1,1.6-.3c8.9-4,15.8-10.8,21.1-18.9,6.3,9.3,13.6,16.5,21,18.7.4.1.8.2,1.1.2,1.7,0,3.3-1.1,3.8-2.9.6-2.1-.6-4.3-2.7-5ZM286.9,114.7c-.1-.1-.3-.2-.4-.4.2.1.3.2.4.4ZM286.4,114.4c-.4-.2-.7-.4-1.2-.5.4.1.8.3,1.2.5ZM287,114.9c.1.1.2.2.3.4-.1-.1-.2-.2-.3-.4ZM287.5,115.4c0,.1.2.3.3.4,0-.1-.2-.3-.3-.4ZM287.8,115.9c0,.1.1.3.2.4,0-.1-.1-.3-.2-.4ZM288,116.6c0,.1,0,.3,0,.4,0-.1,0-.3,0-.4Z"/>
  <path class="st0" d="M350.4,124.8h15c.3,3.5,1,7.2,2.8,9.8.8,1.1,2,1.7,3.3,1.7s1.6-.2,2.3-.7c1.8-1.3,2.2-3.8,1-5.6-.5-.8-1.1-2.6-1.3-5.2h21.6c-.3,2.6-.8,4.5-1.3,5.2-1.3,1.8-.8,4.3,1,5.6.7.5,1.5.7,2.3.7,1.3,0,2.5-.6,3.3-1.7,1.8-2.6,2.6-6.3,2.8-9.8h14c2.2,0,4-1.8,4-4s-1.8-4-4-4h-13.9c0-2.1,0-4.1,0-6.2-.2-2.2-2.1-3.9-4.3-3.7-2.2.2-3.9,2.1-3.7,4.3.1,1.8.1,3.6,0,5.7h-22c0-2,0-3.8,0-5.7.2-2.2-1.5-4.1-3.7-4.3-2.2-.2-4.1,1.5-4.3,3.7-.2,2.1-.1,4.1,0,6.2h-14.8c-2.2,0-4,1.8-4,4s1.8,4,4,4Z"/>
  <path class="st0" d="M415.1,135.8c-1.2-1.9-3.6-2.5-5.5-1.3-13.5,8.3-33.2,11-54.3,7.6-2.2-.4-4.2,1.1-4.6,3.3-.4,2.2,1.1,4.2,3.3,4.6,3.4.6,6.9,1,10.2,1.2,0,0,.1,0,.2.1,1,.6,3.6,3.7,3.6,5.7s1.8,4,4,4,4-1.8,4-4-.6-3.8-1.4-5.5c2.7,0,5.4-.2,8-.5.1,0,.3.2.4.3,1,.6,3.6,3.7,3.6,5.7s1.8,4,4,4,4-1.8,4-4-1.1-5.3-2.5-7.4c2.2-.5,4.4-1,6.5-1.7.2.2.5.4.7.5,1.6.9,5.4,5.4,5.4,8.5s1.8,4,4,4,4-1.8,4-4c0-4.6-2.7-9.1-5.6-12.2,2.3-1,4.4-2.2,6.5-3.4,1.9-1.2,2.5-3.6,1.3-5.5Z"/>
  <path class="st0" d="M421.7,190.8c-11.9,0-20.8-9.5-20.8-15.7s0,0,0,0h20.5c2.2,0,4-1.8,4-4s-1.8-4-4-4h-32.4c-.2-2-1.9-3.5-4-3.5s-3.7,1.5-4,3.5h-36.2c-2.2,0-4,1.8-4,4s1.8,4,4,4h25.5s0,0,0,0c0,6.2-8.9,15.7-20.8,15.7s-4,1.8-4,4,1.8,4,4,4c15.9,0,28.8-13,28.8-23.7s0,0,0,0h2.6v25.2c0,2.2,1.8,4,4,4s4-1.8,4-4v-25.2h3.8s0,0,0,0c0,10.7,12.8,23.7,28.8,23.7s4-1.8,4-4-1.8-4-4-4Z"/>
  <path class="st0" d="M49.2,153.9c4.2,0,7.6-3.4,7.6-7.6s-3.4-7.6-7.6-7.6-7.6,3.4-7.6,7.6,3.4,7.6,7.6,7.6ZM49.2,145.9c.2,0,.4.2.4.4s-.2.4-.4.4-.4-.2-.4-.4.2-.4.4-.4Z"/>
  <path class="st0" d="M189.3,138.8c-4.2,0-7.6,3.4-7.6,7.6s3.4,7.6,7.6,7.6,7.6-3.4,7.6-7.6-3.4-7.6-7.6-7.6ZM189.3,146.8c-.2,0-.4-.2-.4-.4s.2-.4.4-.4.4.2.4.4-.2.4-.4.4Z"/>
</svg>